<mxfile host="app.diagrams.net" agent="Mozilla/5.0 (Windows NT 10.0; Win64; x64) AppleWebKit/537.36 (KHTML, like Gecko) Chrome/134.0.0.0 Safari/537.36" version="26.2.3">
  <diagram name="P치gina-1" id="5APcIFdhp8Wj7Sj7alFZ">
    <mxGraphModel dx="948" dy="1740" grid="1" gridSize="10" guides="1" tooltips="1" connect="1" arrows="1" fold="1" page="1" pageScale="1" pageWidth="827" pageHeight="1169" math="0" shadow="0">
      <root>
        <mxCell id="0" />
        <mxCell id="1" parent="0" />
        <mxCell id="Mjdjf3mdtd9dw7OQs66A-35" value="" style="endArrow=none;dashed=1;html=1;rounded=0;dashPattern=8 8;entryX=0.6;entryY=1;entryDx=0;entryDy=0;entryPerimeter=0;" edge="1" parent="1" target="Mjdjf3mdtd9dw7OQs66A-3">
          <mxGeometry width="50" height="50" relative="1" as="geometry">
            <mxPoint x="410" y="165" as="sourcePoint" />
            <mxPoint x="665" y="145" as="targetPoint" />
          </mxGeometry>
        </mxCell>
        <mxCell id="Mjdjf3mdtd9dw7OQs66A-33" value="" style="rounded=0;whiteSpace=wrap;html=1;" vertex="1" parent="1">
          <mxGeometry x="60" y="-50" width="720" height="500" as="geometry" />
        </mxCell>
        <mxCell id="Mjdjf3mdtd9dw7OQs66A-20" value="" style="endArrow=none;dashed=1;html=1;rounded=0;dashPattern=8 8;entryX=0;entryY=1;entryDx=0;entryDy=-5;entryPerimeter=0;" edge="1" parent="1" source="Mjdjf3mdtd9dw7OQs66A-21">
          <mxGeometry width="50" height="50" relative="1" as="geometry">
            <mxPoint x="409" y="360" as="sourcePoint" />
            <mxPoint x="409" y="205" as="targetPoint" />
          </mxGeometry>
        </mxCell>
        <mxCell id="Mjdjf3mdtd9dw7OQs66A-1" value="Usu치rio&lt;div&gt;&lt;br&gt;&lt;/div&gt;" style="shape=umlActor;verticalLabelPosition=bottom;verticalAlign=top;html=1;outlineConnect=0;" vertex="1" parent="1">
          <mxGeometry x="120" y="60" width="30" height="60" as="geometry" />
        </mxCell>
        <mxCell id="Mjdjf3mdtd9dw7OQs66A-3" value="Tela do sistema" style="shape=umlBoundary;whiteSpace=wrap;html=1;" vertex="1" parent="1">
          <mxGeometry x="350" y="55" width="100" height="80" as="geometry" />
        </mxCell>
        <mxCell id="Mjdjf3mdtd9dw7OQs66A-4" value="Aluno" style="html=1;whiteSpace=wrap;" vertex="1" parent="1">
          <mxGeometry x="600" y="70" width="110" height="50" as="geometry" />
        </mxCell>
        <mxCell id="Mjdjf3mdtd9dw7OQs66A-6" value="" style="endArrow=classic;html=1;rounded=0;exitX=1;exitY=0;exitDx=0;exitDy=5;exitPerimeter=0;entryX=0;entryY=0;entryDx=0;entryDy=5;entryPerimeter=0;" edge="1" parent="1" source="Mjdjf3mdtd9dw7OQs66A-5" target="Mjdjf3mdtd9dw7OQs66A-7">
          <mxGeometry width="50" height="50" relative="1" as="geometry">
            <mxPoint x="370" y="220" as="sourcePoint" />
            <mxPoint x="340" y="165" as="targetPoint" />
          </mxGeometry>
        </mxCell>
        <mxCell id="Mjdjf3mdtd9dw7OQs66A-7" value="" style="html=1;points=[[0,0,0,0,5],[0,1,0,0,-5],[1,0,0,0,5],[1,1,0,0,-5]];perimeter=orthogonalPerimeter;outlineConnect=0;targetShapes=umlLifeline;portConstraint=eastwest;newEdgeStyle={&quot;curved&quot;:0,&quot;rounded&quot;:0};" vertex="1" parent="1">
          <mxGeometry x="404" y="160" width="10" height="50" as="geometry" />
        </mxCell>
        <mxCell id="Mjdjf3mdtd9dw7OQs66A-9" value="1.1 Usu치rio clica em alunos" style="text;html=1;align=center;verticalAlign=middle;whiteSpace=wrap;rounded=0;" vertex="1" parent="1">
          <mxGeometry x="180" y="135" width="180" height="30" as="geometry" />
        </mxCell>
        <mxCell id="Mjdjf3mdtd9dw7OQs66A-10" value="" style="html=1;points=[[0,0,0,0,5],[0,1,0,0,-5],[1,0,0,0,5],[1,1,0,0,-5]];perimeter=orthogonalPerimeter;outlineConnect=0;targetShapes=umlLifeline;portConstraint=eastwest;newEdgeStyle={&quot;curved&quot;:0,&quot;rounded&quot;:0};" vertex="1" parent="1">
          <mxGeometry x="650" y="160" width="10" height="50" as="geometry" />
        </mxCell>
        <mxCell id="Mjdjf3mdtd9dw7OQs66A-11" value="" style="endArrow=classic;html=1;rounded=0;exitX=1;exitY=0;exitDx=0;exitDy=5;exitPerimeter=0;entryX=0;entryY=0;entryDx=0;entryDy=5;entryPerimeter=0;" edge="1" parent="1" source="Mjdjf3mdtd9dw7OQs66A-7" target="Mjdjf3mdtd9dw7OQs66A-10">
          <mxGeometry width="50" height="50" relative="1" as="geometry">
            <mxPoint x="490" y="310" as="sourcePoint" />
            <mxPoint x="754" y="310" as="targetPoint" />
          </mxGeometry>
        </mxCell>
        <mxCell id="Mjdjf3mdtd9dw7OQs66A-12" value="1.2 getAlunos()" style="text;html=1;align=center;verticalAlign=middle;whiteSpace=wrap;rounded=0;" vertex="1" parent="1">
          <mxGeometry x="450" y="135" width="180" height="30" as="geometry" />
        </mxCell>
        <mxCell id="Mjdjf3mdtd9dw7OQs66A-13" value="" style="endArrow=open;html=1;rounded=0;exitX=0;exitY=1;exitDx=0;exitDy=-5;exitPerimeter=0;entryX=1;entryY=1;entryDx=0;entryDy=-5;entryPerimeter=0;dashed=1;dashPattern=8 8;endFill=0;" edge="1" parent="1" source="Mjdjf3mdtd9dw7OQs66A-10" target="Mjdjf3mdtd9dw7OQs66A-7">
          <mxGeometry width="50" height="50" relative="1" as="geometry">
            <mxPoint x="430" y="310" as="sourcePoint" />
            <mxPoint x="666" y="310" as="targetPoint" />
          </mxGeometry>
        </mxCell>
        <mxCell id="Mjdjf3mdtd9dw7OQs66A-14" value="1.3 return alunos" style="text;html=1;align=center;verticalAlign=middle;whiteSpace=wrap;rounded=0;" vertex="1" parent="1">
          <mxGeometry x="450" y="175" width="180" height="30" as="geometry" />
        </mxCell>
        <mxCell id="Mjdjf3mdtd9dw7OQs66A-16" value="" style="endArrow=none;dashed=1;html=1;rounded=0;dashPattern=8 8;" edge="1" parent="1" source="Mjdjf3mdtd9dw7OQs66A-17" target="Mjdjf3mdtd9dw7OQs66A-5">
          <mxGeometry width="50" height="50" relative="1" as="geometry">
            <mxPoint x="135" y="390" as="sourcePoint" />
            <mxPoint x="280" y="350" as="targetPoint" />
          </mxGeometry>
        </mxCell>
        <mxCell id="Mjdjf3mdtd9dw7OQs66A-18" value="" style="endArrow=none;dashed=1;html=1;rounded=0;dashPattern=8 8;" edge="1" parent="1" target="Mjdjf3mdtd9dw7OQs66A-17">
          <mxGeometry width="50" height="50" relative="1" as="geometry">
            <mxPoint x="135" y="390" as="sourcePoint" />
            <mxPoint x="135" y="220" as="targetPoint" />
          </mxGeometry>
        </mxCell>
        <mxCell id="Mjdjf3mdtd9dw7OQs66A-17" value="" style="html=1;points=[[0,0,0,0,5],[0,1,0,0,-5],[1,0,0,0,5],[1,1,0,0,-5]];perimeter=orthogonalPerimeter;outlineConnect=0;targetShapes=umlLifeline;portConstraint=eastwest;newEdgeStyle={&quot;curved&quot;:0,&quot;rounded&quot;:0};" vertex="1" parent="1">
          <mxGeometry x="130" y="270" width="10" height="70" as="geometry" />
        </mxCell>
        <mxCell id="Mjdjf3mdtd9dw7OQs66A-19" value="" style="endArrow=classic;html=1;rounded=0;exitX=1;exitY=0;exitDx=0;exitDy=5;exitPerimeter=0;entryX=0;entryY=0;entryDx=0;entryDy=5;entryPerimeter=0;" edge="1" parent="1" source="Mjdjf3mdtd9dw7OQs66A-17" target="Mjdjf3mdtd9dw7OQs66A-21">
          <mxGeometry width="50" height="50" relative="1" as="geometry">
            <mxPoint x="170" y="299.5" as="sourcePoint" />
            <mxPoint x="330" y="275" as="targetPoint" />
          </mxGeometry>
        </mxCell>
        <mxCell id="Mjdjf3mdtd9dw7OQs66A-21" value="" style="html=1;points=[[0,0,0,0,5],[0,1,0,0,-5],[1,0,0,0,5],[1,1,0,0,-5]];perimeter=orthogonalPerimeter;outlineConnect=0;targetShapes=umlLifeline;portConstraint=eastwest;newEdgeStyle={&quot;curved&quot;:0,&quot;rounded&quot;:0};" vertex="1" parent="1">
          <mxGeometry x="404" y="270" width="10" height="60" as="geometry" />
        </mxCell>
        <mxCell id="Mjdjf3mdtd9dw7OQs66A-23" value="2.1 Usu치rio clica em filtrar alunos por disciplina" style="text;html=1;align=center;verticalAlign=middle;whiteSpace=wrap;rounded=0;" vertex="1" parent="1">
          <mxGeometry x="190" y="240" width="180" height="30" as="geometry" />
        </mxCell>
        <mxCell id="Mjdjf3mdtd9dw7OQs66A-24" value="" style="endArrow=classic;html=1;rounded=0;exitX=1;exitY=0;exitDx=0;exitDy=5;exitPerimeter=0;entryX=0;entryY=0;entryDx=0;entryDy=5;entryPerimeter=0;" edge="1" parent="1" source="Mjdjf3mdtd9dw7OQs66A-21" target="Mjdjf3mdtd9dw7OQs66A-25">
          <mxGeometry width="50" height="50" relative="1" as="geometry">
            <mxPoint x="336" y="440" as="sourcePoint" />
            <mxPoint x="550" y="275" as="targetPoint" />
          </mxGeometry>
        </mxCell>
        <mxCell id="Mjdjf3mdtd9dw7OQs66A-25" value="" style="html=1;points=[[0,0,0,0,5],[0,1,0,0,-5],[1,0,0,0,5],[1,1,0,0,-5]];perimeter=orthogonalPerimeter;outlineConnect=0;targetShapes=umlLifeline;portConstraint=eastwest;newEdgeStyle={&quot;curved&quot;:0,&quot;rounded&quot;:0};" vertex="1" parent="1">
          <mxGeometry x="650" y="270" width="10" height="60" as="geometry" />
        </mxCell>
        <mxCell id="Mjdjf3mdtd9dw7OQs66A-26" value="" style="endArrow=open;html=1;rounded=0;exitX=0;exitY=1;exitDx=0;exitDy=-5;exitPerimeter=0;entryX=1;entryY=1;entryDx=0;entryDy=-5;entryPerimeter=0;dashed=1;dashPattern=8 8;endFill=0;" edge="1" parent="1" source="Mjdjf3mdtd9dw7OQs66A-25" target="Mjdjf3mdtd9dw7OQs66A-21">
          <mxGeometry width="50" height="50" relative="1" as="geometry">
            <mxPoint x="666" y="390" as="sourcePoint" />
            <mxPoint x="430" y="390" as="targetPoint" />
          </mxGeometry>
        </mxCell>
        <mxCell id="Mjdjf3mdtd9dw7OQs66A-28" value="2.2 filtrarDados(Disciplina disciplina)" style="text;html=1;align=center;verticalAlign=middle;whiteSpace=wrap;rounded=0;" vertex="1" parent="1">
          <mxGeometry x="450" y="240" width="180" height="30" as="geometry" />
        </mxCell>
        <mxCell id="Mjdjf3mdtd9dw7OQs66A-29" value="2.3 return alunos nessa disciplina" style="text;html=1;align=center;verticalAlign=middle;whiteSpace=wrap;rounded=0;" vertex="1" parent="1">
          <mxGeometry x="450" y="290" width="180" height="30" as="geometry" />
        </mxCell>
        <mxCell id="Mjdjf3mdtd9dw7OQs66A-30" value="" style="endArrow=none;dashed=1;html=1;rounded=0;dashPattern=8 8;" edge="1" parent="1" source="Mjdjf3mdtd9dw7OQs66A-25" target="Mjdjf3mdtd9dw7OQs66A-10">
          <mxGeometry width="50" height="50" relative="1" as="geometry">
            <mxPoint x="620" y="450" as="sourcePoint" />
            <mxPoint x="620" y="400" as="targetPoint" />
          </mxGeometry>
        </mxCell>
        <mxCell id="Mjdjf3mdtd9dw7OQs66A-31" value="" style="endArrow=none;dashed=1;html=1;rounded=0;dashPattern=8 8;" edge="1" parent="1">
          <mxGeometry width="50" height="50" relative="1" as="geometry">
            <mxPoint x="410" y="390" as="sourcePoint" />
            <mxPoint x="409" y="330" as="targetPoint" />
          </mxGeometry>
        </mxCell>
        <mxCell id="Mjdjf3mdtd9dw7OQs66A-32" value="" style="endArrow=none;dashed=1;html=1;rounded=0;dashPattern=8 8;" edge="1" parent="1" target="Mjdjf3mdtd9dw7OQs66A-25">
          <mxGeometry width="50" height="50" relative="1" as="geometry">
            <mxPoint x="655" y="400" as="sourcePoint" />
            <mxPoint x="419" y="340" as="targetPoint" />
          </mxGeometry>
        </mxCell>
        <mxCell id="Mjdjf3mdtd9dw7OQs66A-34" value="" style="endArrow=none;dashed=1;html=1;rounded=0;dashPattern=8 8;entryX=0.5;entryY=1;entryDx=0;entryDy=0;" edge="1" parent="1" source="Mjdjf3mdtd9dw7OQs66A-10" target="Mjdjf3mdtd9dw7OQs66A-4">
          <mxGeometry width="50" height="50" relative="1" as="geometry">
            <mxPoint x="665" y="280" as="sourcePoint" />
            <mxPoint x="665" y="220" as="targetPoint" />
          </mxGeometry>
        </mxCell>
        <mxCell id="Mjdjf3mdtd9dw7OQs66A-37" value="" style="endArrow=none;dashed=1;html=1;rounded=0;dashPattern=8 8;" edge="1" parent="1">
          <mxGeometry width="50" height="50" relative="1" as="geometry">
            <mxPoint x="409" y="160" as="sourcePoint" />
            <mxPoint x="409" y="136" as="targetPoint" />
          </mxGeometry>
        </mxCell>
        <mxCell id="Mjdjf3mdtd9dw7OQs66A-38" value="" style="endArrow=none;dashed=1;html=1;rounded=0;dashPattern=8 8;exitX=1;exitY=0;exitDx=0;exitDy=5;exitPerimeter=0;" edge="1" parent="1">
          <mxGeometry width="50" height="50" relative="1" as="geometry">
            <mxPoint x="135" y="165" as="sourcePoint" />
            <mxPoint x="135" y="120" as="targetPoint" />
          </mxGeometry>
        </mxCell>
        <mxCell id="Mjdjf3mdtd9dw7OQs66A-5" value="" style="html=1;points=[[0,0,0,0,5],[0,1,0,0,-5],[1,0,0,0,5],[1,1,0,0,-5]];perimeter=orthogonalPerimeter;outlineConnect=0;targetShapes=umlLifeline;portConstraint=eastwest;newEdgeStyle={&quot;curved&quot;:0,&quot;rounded&quot;:0};" vertex="1" parent="1">
          <mxGeometry x="130" y="160" width="10" height="60" as="geometry" />
        </mxCell>
        <mxCell id="Mjdjf3mdtd9dw7OQs66A-39" value="Requisito-18: FERRAMENTA DE FILTRAGEM PARA LISTAGEM" style="text;html=1;align=center;verticalAlign=middle;whiteSpace=wrap;rounded=0;fontStyle=1;fontSize=15;" vertex="1" parent="1">
          <mxGeometry x="190" y="-40" width="470" height="30" as="geometry" />
        </mxCell>
      </root>
    </mxGraphModel>
  </diagram>
</mxfile>
